<svg width="202" height="49" viewBox="0 0 202 49" fill="none" xmlns="http://www.w3.org/2000/svg">
<path d="M2.42401 29.9766L2.55012 21.9897H2.60617C2.78832 22.9986 2.95647 23.7272 3.08258 24.2737L4.37169 29.9766H7.07601L8.42117 24.2737C8.54728 23.7272 8.71542 22.9986 8.88357 21.9897H8.93961L9.13578 29.9766H11.2096L10.8453 20.5184H7.74859C7.74859 20.5184 6.51553 25.2966 5.88499 28.3372H5.84295C5.29648 25.2825 4.25959 20.5184 4.25959 20.5184H1.10688L0.742564 29.9766H2.42401ZM15.1308 21.9757V20.3083H13.2812V21.9757H15.1308ZM15.1588 29.9766V23.1107H12.5386V24.2597L13.3373 24.4278V29.9766H15.1588ZM18.6317 29.9766V24.7921C18.954 24.5819 19.3603 24.3718 19.8367 24.3718C20.6775 24.3718 21.0698 24.8622 21.0698 25.8991V29.9766H22.9334V25.7309C22.9334 23.9934 22.2468 22.9706 20.5093 22.9706C19.4864 22.9706 18.7298 23.433 18.3375 23.8953L18.0572 23.1107H16.7961V29.9766H18.6317ZM26.7706 21.9757V20.3083H24.921V21.9757H26.7706ZM26.7986 29.9766V23.1107H24.1784V24.2597L24.977 24.4278V29.9766H26.7986ZM30.2995 30.1167C32.079 30.1167 33.0038 29.1499 33.0038 27.9028C33.0038 25.6609 30.0333 25.9831 30.0333 24.9182C30.0333 24.5259 30.3415 24.2877 30.9721 24.2877C31.5746 24.2877 32.1631 24.4278 32.6255 24.638L32.8777 23.3068C32.4013 23.1107 31.6587 22.9706 30.944 22.9706C29.0945 22.9706 28.3238 23.8813 28.3238 24.8902C28.3238 27.2302 31.2523 26.8239 31.2523 28.0569C31.2523 28.4773 30.846 28.8136 30.2434 28.8136C29.6129 28.8136 28.9403 28.5614 28.618 28.3372L28.2397 29.6123C28.7021 29.8785 29.4728 30.1167 30.2995 30.1167ZM36.9671 30.1167C37.6957 30.1167 38.4103 29.8925 38.8167 29.6543L38.5365 28.3091C38.2562 28.4493 37.8639 28.5614 37.4855 28.5614C36.9951 28.5614 36.7569 28.2531 36.7569 27.7767V24.4138H38.5925V23.1107H36.7569V21.3311L34.9494 21.9197V23.1107H33.9265V24.4138H34.9494V27.8187C34.9494 29.5422 35.7481 30.1167 36.9671 30.1167ZM42.3876 30.1167C43.4666 30.1167 44.4054 29.7524 44.9799 29.4441L44.6296 28.155C44.0271 28.4633 43.3124 28.7295 42.6118 28.7295C41.4628 28.7295 40.8463 28.127 40.8463 27.0341H45.12V26.2354C45.12 24.5119 44.3073 22.9706 42.2335 22.9706C40.0336 22.9706 39.0107 24.4138 39.0107 26.5296C39.0107 28.7996 40.2718 30.1167 42.3876 30.1167ZM43.3545 25.9551H40.8463C40.8463 25.1424 41.2246 24.3157 42.1354 24.3157C43.0882 24.3157 43.3545 25.0724 43.3545 25.9551ZM48.2986 29.9766V24.9883C48.6069 24.7361 49.0412 24.5259 49.5317 24.5259C49.8399 24.5259 50.1622 24.5679 50.3864 24.638L50.4284 23.0827C50.2743 23.0406 49.9941 22.9846 49.6297 22.9846C48.817 22.9846 48.2005 23.545 47.9903 24.0355H47.9483L47.7521 23.1107H46.477V29.9766H48.2986ZM53.8312 21.9757V20.3083H51.9816V21.9757H53.8312ZM53.8593 29.9766V23.1107H51.239V24.2597L52.0377 24.4278V29.9766H53.8593ZM58.4531 30.1167C60.4988 30.1167 61.6759 28.8696 61.6759 26.5296C61.6759 24.5119 60.5269 22.9706 58.4531 22.9706C56.3513 22.9706 55.2303 24.5119 55.2303 26.5296C55.2303 28.8836 56.3933 30.1167 58.4531 30.1167ZM58.4531 28.7715C57.5563 28.7715 57.1219 28.127 57.1219 26.5296C57.1219 24.8902 57.5984 24.3017 58.4531 24.3017C59.3078 24.3017 59.7982 24.8762 59.7982 26.5296C59.7982 28.169 59.3499 28.7715 58.4531 28.7715ZM68.6776 30.1167C69.5604 30.1167 70.219 29.6403 70.4992 29.2199L70.7094 29.9766H72.1947V20.3083H70.3731V22.3821C70.3731 22.9005 70.4291 23.2508 70.5412 23.6431C70.1629 23.2228 69.5744 22.9706 68.8318 22.9706C67.1643 22.9706 65.8752 24.2737 65.8752 26.5436C65.8752 28.9957 67.1223 30.1167 68.6776 30.1167ZM69.098 28.7856C68.2293 28.7856 67.7108 28.169 67.7108 26.5296C67.7108 24.9322 68.2573 24.3437 69.126 24.3437C69.6585 24.3437 70.0928 24.5119 70.3731 24.68V28.1971C70.0228 28.5614 69.5604 28.7856 69.098 28.7856ZM76.9426 30.1167C78.0216 30.1167 78.9604 29.7524 79.5349 29.4441L79.1845 28.155C78.582 28.4633 77.8674 28.7295 77.1668 28.7295C76.0178 28.7295 75.4013 28.127 75.4013 27.0341H79.675V26.2354C79.675 24.5119 78.8623 22.9706 76.7885 22.9706C74.5886 22.9706 73.5657 24.4138 73.5657 26.5296C73.5657 28.7996 74.8268 30.1167 76.9426 30.1167ZM77.9095 25.9551H75.4013C75.4013 25.1424 75.7796 24.3157 76.6904 24.3157C77.6432 24.3157 77.9095 25.0724 77.9095 25.9551ZM87.9939 30.1167C89.241 30.1167 90.3059 29.7524 91.2447 29.1078L90.6562 27.6226C90.0116 28.099 89.0868 28.4913 88.162 28.4913C86.6207 28.4913 85.836 27.3703 85.836 25.1845C85.836 23.1107 86.6207 22.0037 88.19 22.0037C89.1709 22.0037 90.0256 22.284 90.516 22.6623L91.2167 21.177C90.446 20.6586 89.283 20.3783 87.9939 20.3783C85.3176 20.3783 83.9024 22.2559 83.9024 25.1985C83.9024 28.3512 85.3316 30.1167 87.9939 30.1167ZM94.4793 21.9757V20.3083H92.6297V21.9757H94.4793ZM94.5074 29.9766V23.1107H91.8871V24.2597L92.6858 24.4278V29.9766H94.5074ZM99.2693 30.1167C100.348 30.1167 101.287 29.7524 101.862 29.4441L101.511 28.155C100.909 28.4633 100.194 28.7295 99.4935 28.7295C98.3445 28.7295 97.728 28.127 97.728 27.0341H102.002V26.2354C102.002 24.5119 101.189 22.9706 99.1152 22.9706C96.9153 22.9706 95.8924 24.4138 95.8924 26.5296C95.8924 28.7996 97.1535 30.1167 99.2693 30.1167ZM100.236 25.9551H97.728C97.728 25.1424 98.1063 24.3157 99.0171 24.3157C99.9699 24.3157 100.236 25.0724 100.236 25.9551ZM105.194 29.9766V24.7921C105.517 24.5819 105.923 24.3718 106.399 24.3718C107.24 24.3718 107.632 24.8622 107.632 25.8991V29.9766H109.496V25.7309C109.496 23.9934 108.809 22.9706 107.072 22.9706C106.049 22.9706 105.292 23.433 104.9 23.8953L104.62 23.1107H103.359V29.9766H105.194ZM114.09 30.1167C115.127 30.1167 116.052 29.7244 116.444 29.5142L116.108 28.2111C115.659 28.4633 114.959 28.7295 114.244 28.7295C113.249 28.7295 112.675 28.099 112.675 26.5436C112.675 25.0023 113.277 24.3577 114.23 24.3577C114.832 24.3577 115.463 24.4839 115.953 24.7781L116.43 23.531C115.771 23.1527 114.987 22.9706 114.076 22.9706C112.044 22.9706 110.811 24.3017 110.811 26.5436C110.811 28.9537 112.044 30.1167 114.09 30.1167ZM120.001 21.9757V20.3083H118.151V21.9757H120.001ZM120.029 29.9766V23.1107H117.409V24.2597L118.207 24.4278V29.9766H120.029ZM123.656 30.1167C124.623 30.1167 125.309 29.6403 125.66 29.1639L125.912 29.9766H127.159V25.6188C127.159 23.8673 126.318 22.9706 124.37 22.9706C123.291 22.9706 122.353 23.2368 121.666 23.531L122.128 24.8342C122.689 24.5819 123.376 24.3718 124.188 24.3718C124.889 24.3718 125.393 24.652 125.393 25.5348V25.8851H123.95C122.297 25.8851 121.358 26.6417 121.358 27.9168C121.358 29.2339 122.283 30.1167 123.656 30.1167ZM124.174 28.8696C123.488 28.8696 123.151 28.4913 123.151 27.8608C123.151 27.3423 123.502 26.978 124.258 26.978H125.393V28.4072C125.057 28.6735 124.609 28.8696 124.174 28.8696ZM128.572 31.8822C129.749 31.7561 130.422 31.2657 130.422 30.0887V28.0009H128.572V29.7664L129.006 29.9766C129.006 30.6351 128.824 30.8734 128.572 30.9294V31.8822ZM138.53 29.9766V22.0738H140.884V20.5184H134.341V22.0738H136.625V29.9766H138.53ZM143.474 30.1167C144.553 30.1167 145.492 29.7524 146.067 29.4441L145.716 28.155C145.114 28.4633 144.399 28.7295 143.699 28.7295C142.55 28.7295 141.933 28.127 141.933 27.0341H146.207V26.2354C146.207 24.5119 145.394 22.9706 143.32 22.9706C141.12 22.9706 140.097 24.4138 140.097 26.5296C140.097 28.7996 141.359 30.1167 143.474 30.1167ZM144.441 25.9551H141.933C141.933 25.1424 142.311 24.3157 143.222 24.3157C144.175 24.3157 144.441 25.0724 144.441 25.9551ZM150.688 30.1167C151.725 30.1167 152.65 29.7244 153.042 29.5142L152.706 28.2111C152.258 28.4633 151.557 28.7295 150.843 28.7295C149.848 28.7295 149.273 28.099 149.273 26.5436C149.273 25.0023 149.876 24.3577 150.829 24.3577C151.431 24.3577 152.062 24.4839 152.552 24.7781L153.028 23.531C152.37 23.1527 151.585 22.9706 150.674 22.9706C148.643 22.9706 147.41 24.3017 147.41 26.5436C147.41 28.9537 148.643 30.1167 150.688 30.1167ZM156.067 29.9766V24.7921C156.389 24.5819 156.796 24.3718 157.272 24.3718C158.113 24.3718 158.505 24.8622 158.505 25.8991V29.9766H160.369V25.7309C160.369 23.9934 159.682 22.9706 157.945 22.9706C156.922 22.9706 156.165 23.433 155.773 23.8953L155.492 23.1107H154.231V29.9766H156.067ZM164.794 30.1167C166.84 30.1167 168.017 28.8696 168.017 26.5296C168.017 24.5119 166.868 22.9706 164.794 22.9706C162.693 22.9706 161.572 24.5119 161.572 26.5296C161.572 28.8836 162.735 30.1167 164.794 30.1167ZM164.794 28.7715C163.898 28.7715 163.463 28.127 163.463 26.5296C163.463 24.8902 163.94 24.3017 164.794 24.3017C165.649 24.3017 166.139 24.8762 166.139 26.5296C166.139 28.169 165.691 28.7715 164.794 28.7715ZM171.294 30.1167C171.77 30.1167 172.303 30.0046 172.303 30.0046V28.7155C171.546 28.7155 171.196 28.6314 171.196 28.0569V20.3083H169.388V28.155C169.388 29.3741 169.893 30.1167 171.294 30.1167ZM176.42 30.1167C178.466 30.1167 179.643 28.8696 179.643 26.5296C179.643 24.5119 178.494 22.9706 176.42 22.9706C174.318 22.9706 173.197 24.5119 173.197 26.5296C173.197 28.8836 174.36 30.1167 176.42 30.1167ZM176.42 28.7715C175.523 28.7715 175.089 28.127 175.089 26.5296C175.089 24.8902 175.565 24.3017 176.42 24.3017C177.275 24.3017 177.765 24.8762 177.765 26.5296C177.765 28.169 177.317 28.7715 176.42 28.7715ZM183.634 32.8631C185.358 32.8631 186.899 31.9803 186.899 30.3689C186.899 27.7907 182.541 28.6595 182.541 27.9168C182.541 27.7347 182.667 27.6085 182.878 27.5385C183.172 27.6085 183.494 27.6646 183.76 27.6646C184.923 27.6646 186.591 26.992 186.591 25.3106C186.535 24.8622 186.212 24.5119 185.904 24.2316C186.367 24.3858 186.871 24.4558 187.193 24.4698L187.221 23.1107C186.03 23.0967 184.489 22.9706 183.746 22.9706C182.639 22.9706 180.916 23.489 180.916 25.3106C180.916 26.2914 181.462 26.8659 182.149 27.2442C181.378 27.3003 180.846 27.7206 180.846 28.2951C180.846 29.0938 181.7 29.3601 182.555 29.4581C181.434 29.6263 180.734 30.0887 180.734 30.9714C180.734 32.2325 182.191 32.8631 183.634 32.8631ZM183.746 26.3755C183.172 26.3755 182.513 26.1653 182.513 25.2966C182.513 24.4839 183.214 24.2737 183.746 24.2737C184.279 24.2737 184.965 24.4839 184.965 25.2966C184.965 26.1653 184.307 26.3755 183.746 26.3755ZM183.718 31.63C182.976 31.63 182.429 31.1956 182.429 30.5931C182.429 30.0046 182.835 29.6403 183.48 29.5842C184.559 29.6683 185.091 29.8925 185.091 30.495C185.091 31.2096 184.545 31.63 183.718 31.63ZM187.962 22.0458L191.563 21.3452L191.325 20L187.78 20.9949L187.962 22.0458ZM190.778 29.9766V23.1107H188.158V24.2597L188.957 24.4278V29.9766H190.778ZM194.433 30.1167C195.4 30.1167 196.087 29.6403 196.437 29.1639L196.689 29.9766H197.936V25.6188C197.936 23.8673 197.095 22.9706 195.148 22.9706C194.069 22.9706 193.13 23.2368 192.443 23.531L192.906 24.8342C193.466 24.5819 194.153 24.3718 194.966 24.3718C195.666 24.3718 196.171 24.652 196.171 25.5348V25.8851H194.727C193.074 25.8851 192.135 26.6417 192.135 27.9168C192.135 29.2339 193.06 30.1167 194.433 30.1167ZM194.952 28.8696C194.265 28.8696 193.929 28.4913 193.929 27.8608C193.929 27.3423 194.279 26.978 195.036 26.978H196.171V28.4072C195.834 28.6735 195.386 28.8696 194.952 28.8696ZM199.349 31.8822C200.526 31.7561 201.199 31.2657 201.199 30.0887V28.0009H199.349V29.7664L199.784 29.9766C199.784 30.6351 199.602 30.8734 199.349 30.9294V31.8822ZM4.70797 48.1322C5.95505 48.1322 7.01996 47.7679 7.95877 47.1233L7.37026 45.6381C6.72571 46.1145 5.80091 46.5068 4.87612 46.5068C3.33479 46.5068 2.55012 45.3858 2.55012 43.2C2.55012 41.1262 3.33479 40.0192 4.90414 40.0192C5.88499 40.0192 6.73972 40.2995 7.23014 40.6778L7.93075 39.1925C7.16008 38.6741 5.99708 38.3938 4.70797 38.3938C2.03167 38.3938 0.616455 40.2714 0.616455 43.214C0.616455 46.3667 2.04568 48.1322 4.70797 48.1322ZM11.6418 48.1322C13.6876 48.1322 14.8646 46.8851 14.8646 44.5451C14.8646 42.5274 13.7156 40.9861 11.6418 40.9861C9.54001 40.9861 8.41904 42.5274 8.41904 44.5451C8.41904 46.8991 9.58204 48.1322 11.6418 48.1322ZM11.6418 46.787C10.745 46.787 10.3107 46.1425 10.3107 44.5451C10.3107 42.9057 10.7871 42.3172 11.6418 42.3172C12.4966 42.3172 12.987 42.8917 12.987 44.5451C12.987 46.1845 12.5386 46.787 11.6418 46.787ZM18.0432 47.9921V42.8076C18.3655 42.5974 18.7718 42.3873 19.2482 42.3873C20.089 42.3873 20.4813 42.8777 20.4813 43.9146V47.9921H22.3449V43.7464C22.3449 42.0089 21.6583 40.9861 19.9208 40.9861C18.8979 40.9861 18.1413 41.4485 17.7489 41.9109L17.4687 41.1262H16.2076V47.9921H18.0432ZM26.7706 48.1322C28.8163 48.1322 29.9934 46.8851 29.9934 44.5451C29.9934 42.5274 28.8444 40.9861 26.7706 40.9861C24.6688 40.9861 23.5478 42.5274 23.5478 44.5451C23.5478 46.8991 24.7108 48.1322 26.7706 48.1322ZM26.7706 46.787C25.8738 46.787 25.4394 46.1425 25.4394 44.5451C25.4394 42.9057 25.9158 42.3172 26.7706 42.3172C27.6253 42.3172 28.1157 42.8917 28.1157 44.5451C28.1157 46.1845 27.6674 46.787 26.7706 46.787ZM34.4611 48.1322C35.498 48.1322 36.4228 47.7399 36.8151 47.5297L36.4788 46.2266C36.0304 46.4788 35.3298 46.745 34.6152 46.745C33.6203 46.745 33.0459 46.1145 33.0459 44.5591C33.0459 43.0178 33.6484 42.3733 34.6012 42.3733C35.2037 42.3733 35.8343 42.4994 36.3247 42.7936L36.8011 41.5465C36.1425 41.1682 35.3578 40.9861 34.4471 40.9861C32.4153 40.9861 31.1823 42.3172 31.1823 44.5591C31.1823 46.9692 32.4153 48.1322 34.4611 48.1322ZM40.372 39.9912V38.3238H38.5224V39.9912H40.372ZM40.4001 47.9921V41.1262H37.7798V42.2752L38.5785 42.4433V47.9921H40.4001ZM43.8729 47.9921V42.8076C44.1952 42.5974 44.5595 42.3873 45.0359 42.3873C45.8907 42.3873 46.269 42.8777 46.269 43.9146V47.9921H48.1186V43.7464C48.1186 43.4101 48.1046 43.0879 48.0485 42.8076C48.3568 42.5974 48.7631 42.3873 49.2115 42.3873C50.0662 42.3873 50.5006 42.8777 50.5006 43.9146V47.9921H52.3642V43.7464C52.3642 42.0089 51.7897 40.9861 49.828 40.9861C48.8752 40.9861 48.1606 41.4625 47.7543 41.9529C47.404 41.3223 46.7314 40.9861 45.6104 40.9861C44.6436 40.9861 43.971 41.4485 43.5787 41.9249L43.2704 41.1262H42.0373V47.9921H43.8729ZM56.1874 39.9912V38.3238H54.3378V39.9912H56.1874ZM56.2154 47.9921V41.1262H53.5952V42.2752L54.3938 42.4433V47.9921H56.2154ZM60.9774 48.1322C62.0563 48.1322 62.9951 47.7679 63.5696 47.4596L63.2193 46.1705C62.6168 46.4788 61.9022 46.745 61.2016 46.745C60.0526 46.745 59.4361 46.1425 59.4361 45.0496H63.7097V44.2509C63.7097 42.5274 62.897 40.9861 60.8232 40.9861C58.6234 40.9861 57.6005 42.4293 57.6005 44.5451C57.6005 46.8151 58.8616 48.1322 60.9774 48.1322ZM61.9442 43.9706H59.4361C59.4361 43.1579 59.8144 42.3312 60.7252 42.3312C61.678 42.3312 61.9442 43.0879 61.9442 43.9706ZM66.9024 47.9921V42.8076C67.2246 42.5974 67.631 42.3873 68.1074 42.3873C68.9481 42.3873 69.3405 42.8777 69.3405 43.9146V47.9921H71.2041V43.7464C71.2041 42.0089 70.5175 40.9861 68.78 40.9861C67.7571 40.9861 67.0004 41.4485 66.6081 41.9109L66.3279 41.1262H65.0668V47.9921H66.9024ZM75.2234 48.1322C75.952 48.1322 76.6666 47.908 77.073 47.6698L76.7927 46.3246C76.5125 46.4648 76.1202 46.5769 75.7418 46.5769C75.2514 46.5769 75.0132 46.2686 75.0132 45.7922V42.4293H76.8488V41.1262H75.0132V39.3466L73.2057 39.9352V41.1262H72.1828V42.4293H73.2057V45.8342C73.2057 47.5577 74.0043 48.1322 75.2234 48.1322ZM80.8261 48.1322C82.8718 48.1322 84.0489 46.8851 84.0489 44.5451C84.0489 42.5274 82.8999 40.9861 80.8261 40.9861C78.7243 40.9861 77.6033 42.5274 77.6033 44.5451C77.6033 46.8991 78.7663 48.1322 80.8261 48.1322ZM80.8261 46.787C79.9293 46.787 79.4949 46.1425 79.4949 44.5451C79.4949 42.9057 79.9713 42.3172 80.8261 42.3172C81.6808 42.3172 82.1712 42.8917 82.1712 44.5451C82.1712 46.1845 81.7229 46.787 80.8261 46.787ZM91.5831 48.1322C92.662 48.1322 93.6008 47.7679 94.1753 47.4596L93.825 46.1705C93.2225 46.4788 92.5079 46.745 91.8073 46.745C90.6583 46.745 90.0418 46.1425 90.0418 45.0496H94.3154V44.2509C94.3154 42.5274 93.5027 40.9861 91.429 40.9861C89.2291 40.9861 88.2062 42.4293 88.2062 44.5451C88.2062 46.8151 89.4673 48.1322 91.5831 48.1322ZM92.5499 43.9706H90.0418C90.0418 43.1579 90.4201 42.3312 91.3309 42.3312C92.2837 42.3312 92.5499 43.0879 92.5499 43.9706ZM100.897 47.9921V38.5339H99.0613V47.9921H100.897ZM104.664 47.9921V42.8076C104.986 42.5974 105.393 42.3873 105.869 42.3873C106.71 42.3873 107.102 42.8777 107.102 43.9146V47.9921H108.966V43.7464C108.966 42.0089 108.279 40.9861 106.542 40.9861C105.519 40.9861 104.762 41.4485 104.37 41.9109L104.089 41.1262H102.828V47.9921H104.664ZM112.27 47.9921V42.8076C112.593 42.5974 112.999 42.3873 113.475 42.3873C114.316 42.3873 114.708 42.8777 114.708 43.9146V47.9921H116.572V43.7464C116.572 42.0089 115.885 40.9861 114.148 40.9861C113.125 40.9861 112.368 41.4485 111.976 41.9109L111.696 41.1262H110.435V47.9921H112.27ZM120.998 48.1322C123.044 48.1322 124.221 46.8851 124.221 44.5451C124.221 42.5274 123.072 40.9861 120.998 40.9861C118.896 40.9861 117.775 42.5274 117.775 44.5451C117.775 46.8991 118.938 48.1322 120.998 48.1322ZM120.998 46.787C120.101 46.787 119.667 46.1425 119.667 44.5451C119.667 42.9057 120.143 42.3172 120.998 42.3172C121.853 42.3172 122.343 42.8917 122.343 44.5451C122.343 46.1845 121.895 46.787 120.998 46.787ZM129.585 47.9921L131.687 41.1262H129.837L128.408 46.8851H128.352L126.909 41.1262H124.849L126.909 47.9921H129.585ZM134.571 48.1322C135.538 48.1322 136.225 47.6558 136.575 47.1794L136.827 47.9921H138.074V43.6343C138.074 41.8828 137.233 40.9861 135.286 40.9861C134.207 40.9861 133.268 41.2523 132.581 41.5465L133.044 42.8497C133.604 42.5974 134.291 42.3873 135.104 42.3873C135.804 42.3873 136.309 42.6675 136.309 43.5503V43.9006H134.865C133.212 43.9006 132.273 44.6572 132.273 45.9323C132.273 47.2494 133.198 48.1322 134.571 48.1322ZM135.09 46.8851C134.403 46.8851 134.067 46.5068 134.067 45.8763C134.067 45.3578 134.417 44.9935 135.174 44.9935H136.309V46.4227C135.972 46.689 135.524 46.8851 135.09 46.8851ZM142.766 48.1322C143.803 48.1322 144.728 47.7399 145.12 47.5297L144.784 46.2266C144.335 46.4788 143.635 46.745 142.92 46.745C141.925 46.745 141.351 46.1145 141.351 44.5591C141.351 43.0178 141.953 42.3733 142.906 42.3733C143.509 42.3733 144.139 42.4994 144.63 42.7936L145.106 41.5465C144.448 41.1682 143.663 40.9861 142.752 40.9861C140.72 40.9861 139.487 42.3172 139.487 44.5591C139.487 46.9692 140.72 48.1322 142.766 48.1322ZM148.677 39.9912V38.3238H146.827V39.9912H148.677ZM148.705 47.9921V41.1262H146.085V42.2752L146.884 42.4433V47.9921H148.705ZM151.603 40.0613L155.205 39.3607L154.966 38.0155L151.421 39.0104L151.603 40.0613ZM153.299 48.1322C155.345 48.1322 156.522 46.8851 156.522 44.5451C156.522 42.5274 155.373 40.9861 153.299 40.9861C151.197 40.9861 150.076 42.5274 150.076 44.5451C150.076 46.8991 151.239 48.1322 153.299 48.1322ZM153.299 46.787C152.402 46.787 151.968 46.1425 151.968 44.5451C151.968 42.9057 152.444 42.3172 153.299 42.3172C154.154 42.3172 154.644 42.8917 154.644 44.5451C154.644 46.1845 154.196 46.787 153.299 46.787ZM159.7 47.9921V42.8076C160.023 42.5974 160.429 42.3873 160.905 42.3873C161.746 42.3873 162.138 42.8777 162.138 43.9146V47.9921H164.002V43.7464C164.002 42.0089 163.315 40.9861 161.578 40.9861C160.555 40.9861 159.798 41.4485 159.406 41.9109L159.126 41.1262H157.865V47.9921H159.7Z" fill="#FFFFFF"/>
<path fill-rule="evenodd" clip-rule="evenodd" d="M0 6H98.7749V0H0V6Z" fill="#006FB3"/>
<path fill-rule="evenodd" clip-rule="evenodd" d="M82.7749 6H202V0H82.7749V6Z" fill="#FE6565"/>
</svg>